<?xml version="1.0" encoding="iso-8859-1"?>
<!-- Generator: Adobe Illustrator 19.0.0, SVG Export Plug-In . SVG Version: 6.00 Build 0)  -->
<svg version="1.1" id="Capa_1" xmlns="http://www.w3.org/2000/svg" xmlns:xlink="http://www.w3.org/1999/xlink" x="0px" y="0px"
	 viewBox="0 0 512 512" style="enable-background:new 0 0 512 512;" xml:space="preserve">
<linearGradient id="SVGID_1_" gradientUnits="userSpaceOnUse" x1="256" y1="514" x2="256" y2="2" gradientTransform="matrix(1 0 0 -1 0 514)">
	<stop  offset="0" style="stop-color:#2AF598"/>
	<stop  offset="1" style="stop-color:#009EFD"/>
</linearGradient>
<path style="fill:url(#SVGID_1_);" d="M256,435.878c-99.252,0-180-80.747-180-180s80.748-180,180-180s180,80.748,180,180
	S355.252,435.878,256,435.878z M256,115.878c-77.196,0-140,62.804-140,140s62.804,140,140,140s140-62.804,140-140
	S333.196,115.878,256,115.878z M328.771,321.98c13.528-14.823,19.011-29.687,19.591-31.332l-37.723-13.305l0.058-0.161
	c-0.545,1.462-13.811,35.817-53.36,35.817c-40.271,0-55.734-35.193-56.372-36.691l0.06,0.145l-37.047,15.086
	c0.66,1.621,6.855,16.255,20.985,30.863C204.322,342.42,229.349,353,257.336,353C285.548,353,310.25,342.273,328.771,321.98z
	 M198,225c11.046,0,20-8.954,20-20s-8.954-20-20-20s-20,8.954-20,20S186.954,225,198,225z M315,225c11.046,0,20-8.954,20-20
	s-8.954-20-20-20s-20,8.954-20,20S303.954,225,315,225z M40,60c0-11.028,8.972-20,20-20h81V0H60C26.916,0,0,26.916,0,60v80h40V60z
	 M512,60c0-33.084-26.916-60-60-60h-81v40h81c11.028,0,20,8.972,20,20v80h40V60z M141,472H60c-11.028,0-20-8.972-20-20v-80H0v80
	c0,33.084,26.916,60,60,60h81V472z M512,452v-80h-40v80c0,11.028-8.972,20-20,20h-81v40h81C485.084,512,512,485.084,512,452z"/>
<g>
</g>
<g>
</g>
<g>
</g>
<g>
</g>
<g>
</g>
<g>
</g>
<g>
</g>
<g>
</g>
<g>
</g>
<g>
</g>
<g>
</g>
<g>
</g>
<g>
</g>
<g>
</g>
<g>
</g>
</svg>
